<svg xmlns="http://www.w3.org/2000/svg" xmlns:xlink="http://www.w3.org/1999/xlink" width="500" zoomAndPan="magnify" viewBox="0 0 375 374.999991" height="500" preserveAspectRatio="xMidYMid meet" version="1.0"><defs><g/><clipPath id="bda5f324b0"><path d="M 119.730469 24.535156 L 370.230469 24.535156 L 370.230469 274.285156 L 119.730469 274.285156 Z M 119.730469 24.535156 " clip-rule="nonzero"/></clipPath></defs><path fill="#efc01a" d="M 363.890625 133.457031 C 363.890625 162.59375 351.644531 190.074219 330.140625 209.527344 L 254.980469 93.183594 L 213.503906 156.839844 L 192.675781 121.355469 L 166.582031 161.972656 C 165.21875 155.222656 164.503906 148.238281 164.503906 141.089844 C 164.503906 83.09375 211.464844 36.078125 269.390625 36.078125 C 286.976562 36.078125 303.550781 40.410156 318.109375 48.070312 C 345.6875 66.460938 363.890625 97.871094 363.890625 133.457031 " fill-opacity="1" fill-rule="nonzero"/><g clip-path="url(#bda5f324b0)"><path fill="#075755" d="M 226.90625 82.851562 L 216.714844 72.066406 L 206.648438 82.128906 L 211.128906 86.617188 L 216.585938 81.160156 L 222.300781 87.210938 Z M 238.214844 72.066406 L 232.5 66.015625 L 227.042969 71.472656 L 222.5625 66.984375 L 232.628906 56.917969 L 242.816406 67.707031 Z M 155.878906 178.628906 L 159.457031 184.792969 L 125.066406 238.324219 L 119.734375 234.894531 Z M 213.503906 156.835938 L 192.675781 121.355469 L 164.21875 165.65625 C 160.832031 155.386719 159.066406 144.535156 159.066406 133.457031 C 159.066406 76.921875 205.007812 30.929688 261.476562 30.929688 C 317.949219 30.929688 363.890625 76.921875 363.890625 133.457031 C 363.890625 162.59375 351.644531 190.074219 330.140625 209.527344 L 254.980469 93.183594 Z M 370.230469 133.457031 C 370.230469 118.757812 367.351562 104.5 361.679688 91.074219 C 356.203125 78.113281 348.363281 66.46875 338.375 56.472656 C 328.386719 46.472656 316.757812 38.625 303.8125 33.140625 C 290.402344 27.460938 276.160156 24.582031 261.476562 24.582031 C 246.800781 24.582031 232.558594 27.460938 219.148438 33.140625 C 206.199219 38.625 194.570312 46.472656 184.582031 56.472656 C 174.597656 66.46875 166.753906 78.113281 161.277344 91.074219 C 155.605469 104.5 152.730469 118.757812 152.730469 133.457031 C 152.730469 161.542969 163.386719 188.210938 182.730469 208.542969 L 185.492188 211.441406 L 208.320312 176.410156 L 204.382812 170.835938 L 184.601562 201.195312 C 177.167969 192.75 171.246094 183.253906 166.988281 173.070312 L 192.433594 133.464844 L 225.597656 189.960938 L 231.0625 186.746094 L 217.089844 162.945312 L 254.957031 104.832031 L 364.398438 274.234375 L 369.71875 270.785156 L 333.625 214.917969 C 356.929688 194.226562 370.230469 164.742188 370.230469 133.457031 " fill-opacity="1" fill-rule="nonzero"/></g><g fill="#075755" fill-opacity="1"><g transform="translate(109.22847, 333.70577)"><g><path d="M 10.5 -4.542969 C 10.5 -5.976562 9.902344 -7.257812 8.867188 -8.027344 C 8.207031 -8.515625 7.523438 -8.824219 5.84375 -9.332031 C 4.367188 -9.769531 3.859375 -9.96875 3.441406 -10.34375 C 2.976562 -10.742188 2.667969 -11.492188 2.667969 -12.242188 C 2.667969 -13.875 3.859375 -15.085938 5.492188 -15.085938 C 7.148438 -15.085938 8.402344 -13.941406 8.402344 -12.175781 L 10.101562 -12.175781 C 10.101562 -14.824219 8.207031 -16.585938 5.535156 -16.585938 C 2.910156 -16.585938 1.015625 -14.734375 1.015625 -12.199219 C 1.015625 -11.074219 1.433594 -9.992188 2.160156 -9.308594 C 2.800781 -8.691406 3.308594 -8.449219 5.207031 -7.875 C 8.007812 -7.015625 8.84375 -6.242188 8.84375 -4.457031 C 8.84375 -2.582031 7.476562 -1.214844 5.625 -1.214844 C 3.792969 -1.214844 2.46875 -2.382812 2.226562 -4.566406 L 0.484375 -4.566406 C 0.640625 -1.632812 2.648438 0.285156 5.582031 0.285156 C 8.402344 0.285156 10.5 -1.765625 10.5 -4.542969 Z M 10.5 -4.542969 "/></g></g></g><g fill="#075755" fill-opacity="1"><g transform="translate(125.726275, 333.70577)"><g><path d="M 3.023438 0 L 3.023438 -16.300781 L 1.390625 -16.300781 L 1.390625 0 Z M 3.023438 0 "/></g></g></g><g fill="#075755" fill-opacity="1"><g transform="translate(135.651761, 333.70577)"><g><path d="M 3.023438 0 L 3.023438 -12.066406 L 1.390625 -12.066406 L 1.390625 0 Z M 3.023438 -13.390625 L 3.023438 -16.167969 L 1.390625 -16.167969 L 1.390625 -13.390625 Z M 3.023438 -13.390625 "/></g></g></g><g fill="#075755" fill-opacity="1"><g transform="translate(145.577247, 333.70577)"><g><path d="M 13.71875 0 L 13.71875 -16.300781 L 12.085938 -16.300781 L 12.085938 -10.144531 C 10.894531 -11.582031 9.242188 -12.351562 7.34375 -12.351562 C 3.707031 -12.351562 0.925781 -9.617188 0.925781 -6.023438 C 0.925781 -2.449219 3.773438 0.285156 7.5 0.285156 C 9.507812 0.285156 10.875 -0.441406 12.085938 -2.183594 L 12.085938 0 Z M 12.152344 -6.066406 C 12.152344 -3.417969 10.035156 -1.214844 7.457031 -1.214844 C 4.699219 -1.214844 2.582031 -3.332031 2.582031 -6.085938 C 2.582031 -8.734375 4.675781 -10.851562 7.300781 -10.851562 C 9.96875 -10.851562 12.152344 -8.710938 12.152344 -6.066406 Z M 12.152344 -6.066406 "/></g></g></g><g fill="#075755" fill-opacity="1"><g transform="translate(166.199284, 333.70577)"><g><path d="M 13.476562 -5.492188 C 13.476562 -9.769531 10.765625 -12.351562 7.191406 -12.351562 C 3.683594 -12.351562 0.925781 -9.59375 0.925781 -6.085938 C 0.925781 -2.515625 3.726562 0.285156 7.300781 0.285156 C 10.035156 0.285156 12.394531 -1.675781 13.167969 -3.96875 L 11.46875 -3.96875 C 10.785156 -2.316406 9.085938 -1.214844 7.257812 -1.214844 C 4.785156 -1.214844 2.691406 -3.109375 2.558594 -5.492188 Z M 11.84375 -6.96875 L 2.601562 -6.96875 C 3.042969 -9.285156 4.875 -10.851562 7.167969 -10.851562 C 9.507812 -10.851562 11.292969 -9.375 11.84375 -6.96875 Z M 11.84375 -6.96875 "/></g></g></g><g fill="#075755" fill-opacity="1"><g transform="translate(186.049403, 333.70577)"><g><path d="M 3.308594 0 L 3.308594 -16.300781 L 1.675781 -16.300781 L 1.675781 0 Z M 3.308594 0 "/></g></g></g><g fill="#075755" fill-opacity="1"><g transform="translate(196.548315, 333.70577)"><g><path d="M 7.210938 -10.585938 L 7.210938 -12.066406 L 4.5 -12.066406 L 4.5 -16.300781 L 2.867188 -16.300781 L 2.867188 -12.066406 L 0.265625 -12.066406 L 0.265625 -10.585938 L 2.867188 -10.585938 L 2.867188 0 L 4.5 0 L 4.5 -10.585938 Z M 7.210938 -10.585938 "/></g></g></g><g fill="#075755" fill-opacity="1"><g transform="translate(12.116229, 291.526847)"><g><path d="M 2.941406 0 L 6.417969 0 L 18.921875 -40.382812 L 19.320312 -40.382812 L 40.179688 -6.152344 L 41.71875 -6.152344 L 62.511719 -40.382812 L 62.980469 -40.382812 L 75.480469 0 L 78.957031 0 L 64.25 -47.535156 L 62.910156 -47.535156 L 41.050781 -11.433594 L 40.648438 -11.433594 L 19.054688 -47.535156 L 17.71875 -47.535156 Z M 2.941406 0 "/></g></g></g><g fill="#075755" fill-opacity="1"><g transform="translate(94.012197, 291.526847)"><g><path d="M 30.085938 0.800781 C 44.859375 0.800781 56.695312 -6.820312 56.695312 -17.851562 C 56.695312 -28.816406 44.859375 -36.4375 30.085938 -36.4375 C 15.242188 -36.4375 3.34375 -28.816406 3.34375 -17.851562 C 3.34375 -6.820312 15.242188 0.800781 30.085938 0.800781 Z M 30.085938 -1.871094 C 17.113281 -1.871094 6.820312 -8.222656 6.820312 -17.851562 C 6.820312 -27.476562 17.113281 -33.761719 30.085938 -33.761719 C 42.988281 -33.761719 53.21875 -27.476562 53.21875 -17.851562 C 53.21875 -8.222656 42.988281 -1.871094 30.085938 -1.871094 Z M 30.085938 -1.871094 "/></g></g></g><g fill="#075755" fill-opacity="1"><g transform="translate(154.046962, 291.526847)"><g><path d="M 27.746094 0.800781 C 36.234375 0.800781 43.65625 -2.472656 47.535156 -7.6875 L 47.9375 -7.6875 L 48.070312 0 L 51.414062 0 L 51.414062 -35.703125 L 47.9375 -35.703125 L 47.9375 -16.246094 C 47.9375 -7.820312 39.3125 -1.9375 28.679688 -1.9375 C 17.113281 -1.9375 8.691406 -7.019531 8.691406 -16.246094 L 8.691406 -35.703125 L 5.214844 -35.703125 L 5.214844 -16.179688 C 5.214844 -5.75 14.640625 0.800781 27.746094 0.800781 Z M 27.746094 0.800781 "/></g></g></g><g fill="#075755" fill-opacity="1"><g transform="translate(210.672184, 291.526847)"><g><path d="M 5.214844 0 L 8.691406 0 L 8.691406 -19.457031 C 8.691406 -27.878906 17.25 -33.695312 28.011719 -33.695312 C 39.042969 -33.695312 47.9375 -28.28125 47.9375 -19.457031 L 47.9375 0 L 51.414062 0 L 51.414062 -19.523438 C 51.414062 -29.484375 41.519531 -36.4375 28.949219 -36.4375 C 20.257812 -36.4375 12.769531 -33.09375 8.957031 -27.679688 L 8.355469 -27.679688 L 6.953125 -35.703125 L 5.214844 -35.703125 Z M 5.214844 0 "/></g></g></g><g fill="#075755" fill-opacity="1"><g transform="translate(267.297407, 291.526847)"><g><path d="M 29.417969 0.800781 C 35.835938 0.800781 39.980469 -0.601562 40.648438 -0.734375 L 39.78125 -3.34375 C 39.3125 -3.140625 34.898438 -1.9375 29.082031 -1.9375 C 20.660156 -1.9375 16.980469 -5.082031 16.980469 -11.699219 L 16.980469 -33.09375 L 40.648438 -33.09375 L 40.648438 -35.703125 L 16.980469 -35.703125 L 16.980469 -43.1875 L 15.378906 -43.1875 L 0.667969 -34.363281 L 0.667969 -33.292969 L 13.570312 -33.292969 L 13.570312 -11.367188 C 13.570312 -3.476562 18.785156 0.800781 29.417969 0.800781 Z M 29.417969 0.800781 "/></g></g></g></svg>